<?xml version="1.0" encoding="iso-8859-1"?>
<!-- Generator: Adobe Illustrator 17.1.0, SVG Export Plug-In . SVG Version: 6.00 Build 0)  -->
<!DOCTYPE svg PUBLIC "-//W3C//DTD SVG 1.1//EN" "http://www.w3.org/Graphics/SVG/1.1/DTD/svg11.dtd">
<svg version="1.1" id="Capa_1" xmlns="http://www.w3.org/2000/svg" xmlns:xlink="http://www.w3.org/1999/xlink" x="0px" y="0px"
	 viewBox="0 0 202.256 202.256" style="enable-background:new 0 0 202.256 202.256;" xml:space="preserve">
<path d="M51.148,202.256c-3.574,0-7.148-1.361-9.87-4.082L4.091,160.987c-5.442-5.442-5.442-14.297,0-19.74L133.549,11.79
	C141.152,4.187,151.26,0,162.012,0s20.861,4.187,28.464,11.79c15.694,15.694,15.694,41.231,0,56.926L61.018,198.174
	C58.297,200.896,54.723,202.256,51.148,202.256z M162.012,4c-9.684,0-18.787,3.771-25.635,10.618L6.919,144.076
	c-3.883,3.883-3.883,10.201,0,14.083l37.187,37.187c3.883,3.883,10.201,3.883,14.083,0L187.648,65.888
	c14.135-14.135,14.135-37.135,0-51.27C180.8,7.771,171.696,4,162.012,4z M57.493,174.923c-8.054,0-15.625-3.136-21.319-8.831
	c-11.755-11.756-11.755-30.883,0-42.639c9.693-9.693,24.398-11.393,35.848-5.103l15.2-15.199l-2.366-2.366
	c-0.781-0.781-0.781-2.047,0-2.828l20.718-20.717c0.75-0.75,2.078-0.75,2.828,0l2.365,2.365l15.721-15.719
	c-6.291-11.452-4.59-26.156,5.103-35.849c11.755-11.754,30.881-11.756,42.638,0c5.695,5.695,8.832,13.266,8.832,21.319
	c0,8.054-3.137,15.625-8.832,21.319c-5.694,5.695-13.266,8.831-21.318,8.831c-5.3,0-10.391-1.358-14.875-3.91l-15.638,15.638
	l2.629,2.629c0.781,0.781,0.781,2.047,0,2.828l-20.718,20.718c-0.75,0.75-2.078,0.75-2.828,0l-2.628-2.628l-15.118,15.117
	c2.551,4.485,3.909,9.575,3.909,14.875c0,8.053-3.136,15.625-8.831,21.319C73.118,171.787,65.546,174.923,57.493,174.923z
	 M57.493,118.635c-6.697,0-13.393,2.549-18.491,7.647c-10.196,10.196-10.196,26.786,0,36.982c10.197,10.196,26.787,10.196,36.982,0
	c4.939-4.939,7.659-11.506,7.659-18.491c0-4.875-1.325-9.547-3.805-13.603c-0.036-0.031-0.071-0.064-0.105-0.099
	c-0.247-0.247-0.416-0.542-0.507-0.855c-0.941-1.398-2.024-2.716-3.242-3.934l0,0C70.886,121.184,64.189,118.635,57.493,118.635z
	 M78.812,123.454c0.963,0.963,1.853,1.979,2.667,3.043l14.544-14.543l-5.973-5.974l-14.583,14.583
	C76.634,121.431,77.753,122.395,78.812,123.454L78.812,123.454L78.812,123.454L78.812,123.454z M100.285,110.559l2.609,2.609
	l17.89-17.889l-2.616-2.616c-0.004-0.004-0.009-0.008-0.013-0.013c-0.004-0.004-0.009-0.008-0.013-0.013l-8.767-8.766
	c-0.007-0.008-0.015-0.015-0.022-0.023c-0.008-0.007-0.016-0.015-0.022-0.023l-2.343-2.342L89.099,99.371l11.147,11.148
	c0.007,0.006,0.013,0.013,0.02,0.02C100.272,110.545,100.279,110.552,100.285,110.559z M113.595,82.434l5.974,5.973l15.064-15.064
	c-1.063-0.813-2.08-1.704-3.043-2.667c-1.06-1.059-2.022-2.177-2.891-3.345L113.595,82.434z M152.91,23.207
	c-6.985,0-13.552,2.72-18.491,7.659c-10.195,10.196-10.195,26.787,0,36.982c10.196,10.196,26.787,10.195,36.981,0
	c4.939-4.939,7.66-11.506,7.66-18.491c0-6.985-2.721-13.552-7.66-18.491l0,0C166.46,25.926,159.894,23.207,152.91,23.207z
	 M57.493,166.32c-5.52,0-11.041-2.102-15.243-6.304c-8.405-8.405-8.405-22.082,0-30.486c4.072-4.072,9.485-6.314,15.244-6.314
	c5.758,0,11.172,2.243,15.243,6.314c8.405,8.405,8.405,22.081,0,30.486C68.534,164.219,63.013,166.32,57.493,166.32z
	 M57.493,127.224c-4.497,0-8.993,1.711-12.416,5.134c-6.845,6.846-6.845,17.984,0,24.83c6.847,6.846,17.985,6.845,24.831,0
	c6.845-6.846,6.845-17.984,0-24.83C66.485,128.935,61.989,127.224,57.493,127.224z M152.91,70.914
	c-5.759,0-11.172-2.243-15.243-6.314c-8.405-8.405-8.405-22.081,0-30.486c4.071-4.072,9.484-6.314,15.243-6.314
	c5.758,0,11.172,2.243,15.243,6.314c4.072,4.071,6.314,9.485,6.314,15.243s-2.242,11.171-6.314,15.243
	C164.082,68.671,158.667,70.914,152.91,70.914z M152.91,31.799c-4.69,0-9.099,1.827-12.415,5.143
	c-3.316,3.316-5.143,7.726-5.143,12.415s1.826,9.099,5.143,12.415c3.316,3.316,7.725,5.143,12.415,5.143
	c4.689,0,9.099-1.827,12.415-5.143c3.316-3.316,5.143-7.726,5.143-12.415s-1.826-9.099-5.143-12.415
	C162.008,33.625,157.599,31.799,152.91,31.799z"/>
<g>
</g>
<g>
</g>
<g>
</g>
<g>
</g>
<g>
</g>
<g>
</g>
<g>
</g>
<g>
</g>
<g>
</g>
<g>
</g>
<g>
</g>
<g>
</g>
<g>
</g>
<g>
</g>
<g>
</g>
</svg>
