<?xml version="1.0" encoding="iso-8859-1"?>
<!-- Generator: Adobe Illustrator 16.0.0, SVG Export Plug-In . SVG Version: 6.00 Build 0)  -->
<!DOCTYPE svg PUBLIC "-//W3C//DTD SVG 1.1//EN" "http://www.w3.org/Graphics/SVG/1.1/DTD/svg11.dtd">
<svg version="1.1" id="Capa_1" xmlns="http://www.w3.org/2000/svg" xmlns:xlink="http://www.w3.org/1999/xlink" x="0px" y="0px"
	 width="49px" height="49px" viewBox="0 0 49 49" style="enable-background:new 0 0 49 49;" xml:space="preserve">
<g>
	<path d="M49,18.197c0-1.218-2.254-1.399-3.6-1.399c-1.721,0-1.952,0.85-1.952,1.684c0,0.292,0.032,0.584,0.144,0.842H43.52
		c-1.526-4.11-5.639-7.068-10.474-7.068h-17.09c-4.835,0-8.947,2.958-10.473,7.068H5.409c0.109-0.259,0.144-0.548,0.144-0.842
		c0-0.832-0.235-1.684-1.957-1.684C2.255,16.798,0,16.98,0,18.197c0,0.764,1.013,1.392,2.106,1.72
		c-0.757,0.55-1.255,1.432-1.255,2.436l1.01,8.584c0,0.836,0.342,1.594,0.896,2.142v1.242c0,1.338,1.238,2.423,2.771,2.423h2.538
		c1.532,0,2.771-1.085,2.771-2.423v-0.354h27.327v0.354c0,1.338,1.238,2.423,2.773,2.423h2.537c1.532,0,2.77-1.085,2.77-2.423
		v-1.242c0.555-0.548,0.896-1.306,0.896-2.142l1.01-8.584c0-1.002-0.496-1.885-1.256-2.436C47.982,19.589,49,18.961,49,18.197z
		 M6.805,31.968c-1.045,0-1.894-0.849-1.894-1.894c0-1.049,0.849-1.896,1.894-1.896c1.044,0,1.893,0.848,1.893,1.896
		C8.698,31.119,7.85,31.968,6.805,31.968z M9.355,26.199c-0.42,0.804-2.147,0.732-3.856-0.163c-1.709-0.894-2.755-2.267-2.335-3.073
		c0.42-0.803,2.147-0.729,3.857,0.164C8.731,24.022,9.776,25.396,9.355,26.199z M36.164,31.339H12.839
		c-0.699,0-1.265-0.565-1.265-1.265c0-0.698,0.566-1.264,1.265-1.264h23.325c0.695,0,1.261,0.566,1.261,1.264
		C37.425,30.773,36.857,31.339,36.164,31.339z M11.864,25.827l12.635,0.71l12.64-0.71c-0.125,0.221-0.242,0.423-0.354,0.614
		l-12.286,0.693l-12.282-0.693C12.104,26.253,11.986,26.049,11.864,25.827z M37.432,25.298l-12.934,0.728l-12.931-0.728
		c-0.113-0.204-0.226-0.409-0.339-0.616L24.5,25.43l13.27-0.75C37.656,24.889,37.545,25.094,37.432,25.298z M38.055,24.152
		L24.5,24.916l-13.553-0.763c-0.115-0.209-0.222-0.415-0.33-0.615l13.883,0.78l13.885-0.782
		C38.277,23.737,38.168,23.941,38.055,24.152z M24.5,17.136c-6.179,0-11.657,0.86-15.14,2.188H7.101
		c1.457-3.259,4.876-5.555,8.854-5.555h17.09c3.977,0,7.396,2.296,8.852,5.555h-2.262C36.156,17.996,30.68,17.136,24.5,17.136z
		 M42.193,31.968c-1.045,0-1.896-0.849-1.896-1.894c0-1.049,0.851-1.896,1.896-1.896s1.894,0.848,1.894,1.896
		C44.087,31.119,43.238,31.968,42.193,31.968z M43.502,26.036c-1.711,0.896-3.438,0.966-3.855,0.163
		c-0.42-0.805,0.625-2.178,2.332-3.069c1.711-0.894,3.438-0.967,3.857-0.165C46.258,23.769,45.209,25.145,43.502,26.036z"/>
</g>
<g>
</g>
<g>
</g>
<g>
</g>
<g>
</g>
<g>
</g>
<g>
</g>
<g>
</g>
<g>
</g>
<g>
</g>
<g>
</g>
<g>
</g>
<g>
</g>
<g>
</g>
<g>
</g>
<g>
</g>
</svg>
