<svg height="512pt" viewBox="-61 0 512 512" width="512pt" xmlns="http://www.w3.org/2000/svg"><path d="m0 467c0 24.8125 20.1875 45 45 45h300c24.8125 0 45-20.1875 45-45s-20.1875-45-45-45h-17.578125c1.664063-4.695312 2.578125-9.742188 2.578125-15 0-24.8125-20.1875-45-45-45h-45v-62h14.960938c.019531 0 .039062.003906.058593.003906 7.234375 0 13.515625-5.289062 14.757813-12.429687l28.660156-164.4375c11.261719-64.617188-38.703125-123.136719-103.4375-123.136719-64.757812 0-114.691406 58.546875-103.4375 123.136719 5.964844 34.203125 28.480469 163.441406 28.703125 164.625 1.335937 7.167969 7.664063 12.238281 14.734375 12.238281h15v62h-45c-24.8125 0-45 20.1875-45 45 0 5.257812.914062 10.304688 2.578125 15h-17.578125c-24.8125 0-45 20.1875-45 45zm360 0c0 8.269531-6.730469 15-15 15h-300c-8.269531 0-15-6.730469-15-15s6.730469-15 15-15h300c8.269531 0 15 6.730469 15 15zm-212.386719-197-5.230469-30h105.234376l-5.230469 30zm47.386719-240c46.203125 0 81.941406 41.757812 73.882812 87.984375l-16.039062 92.015625h-115.6875l-16.039062-92.015625c-8.0625-46.25 27.699218-87.984375 73.882812-87.984375zm-15 270h30v62h-30zm-90 107c0-8.269531 6.730469-15 15-15h180c8.269531 0 15 6.730469 15 15s-6.730469 15-15 15h-180c-8.269531 0-15-6.730469-15-15zm0 0"/><path d="m165 120c8.285156 0 15-6.714844 15-15 0-8.269531 6.730469-15 15-15 8.285156 0 15-6.714844 15-15s-6.714844-15-15-15c-24.8125 0-45 20.1875-45 45 0 8.285156 6.714844 15 15 15zm0 0"/></svg>