<?xml version="1.0" encoding="iso-8859-1"?>
<!-- Generator: Adobe Illustrator 19.0.0, SVG Export Plug-In . SVG Version: 6.00 Build 0)  -->
<svg version="1.1" id="Capa_1" xmlns="http://www.w3.org/2000/svg" xmlns:xlink="http://www.w3.org/1999/xlink" x="0px" y="0px"
	 viewBox="0 0 512 512" style="enable-background:new 0 0 512 512;" xml:space="preserve">
<g>
	<g>
		<path d="M405.333,213.333H288V164.32c31.217-12.694,53.333-43.255,53.333-78.987C341.333,38.271,303.052,0,256,0
			s-85.333,38.271-85.333,85.333c0,35.732,22.116,66.293,53.333,78.987v166.346c0,17.646,14.354,32,32,32s32-14.354,32-32V320
			h42.667c5.896,0,10.667-4.771,10.667-10.667v-32c0-11.771,9.573-21.333,21.333-21.333S384,265.563,384,277.333V448
			c0,11.771-9.573,21.333-21.333,21.333s-21.333-9.563-21.333-21.333v-53.333c0-5.896-4.771-10.667-10.667-10.667H288
			c-5.896,0-10.667,4.771-10.667,10.667V448c0,11.771-9.573,21.333-21.333,21.333s-21.333-9.563-21.333-21.333v-53.333
			c0-5.896-4.771-10.667-10.667-10.667h-42.667c-5.896,0-10.667,4.771-10.667,10.667V448c0,11.771-9.573,21.333-21.333,21.333
			c-11.76,0-21.333-9.563-21.333-21.333V277.333c0-11.771,9.573-21.333,21.333-21.333c11.76,0,21.333,9.563,21.333,21.333v32
			c0,5.896,4.771,10.667,10.667,10.667H192c5.896,0,10.667-4.771,10.667-10.667V224c0-5.896-4.771-10.667-10.667-10.667h-85.333
			C83.135,213.333,64,232.479,64,256v213.333C64,492.854,83.135,512,106.667,512h298.667C428.865,512,448,492.854,448,469.333V256
			C448,232.479,428.865,213.333,405.333,213.333z M229.333,64c-8.823,0-16-7.188-16-16s7.177-16,16-16c8.823,0,16,7.188,16,16
			S238.156,64,229.333,64z"/>
	</g>
</g>
<g>
</g>
<g>
</g>
<g>
</g>
<g>
</g>
<g>
</g>
<g>
</g>
<g>
</g>
<g>
</g>
<g>
</g>
<g>
</g>
<g>
</g>
<g>
</g>
<g>
</g>
<g>
</g>
<g>
</g>
</svg>
