<?xml version="1.0" encoding="iso-8859-1"?>
<!-- Generator: Adobe Illustrator 17.1.0, SVG Export Plug-In . SVG Version: 6.00 Build 0)  -->
<!DOCTYPE svg PUBLIC "-//W3C//DTD SVG 1.1//EN" "http://www.w3.org/Graphics/SVG/1.1/DTD/svg11.dtd">
<svg version="1.1" id="Capa_1" xmlns="http://www.w3.org/2000/svg" xmlns:xlink="http://www.w3.org/1999/xlink" x="0px" y="0px"
	 viewBox="0 0 267.771 267.771" style="enable-background:new 0 0 267.771 267.771;" xml:space="preserve">
<g>
	<path d="M228.535,39.206C203.253,13.924,169.639,0,133.885,0S64.518,13.924,39.236,39.206
		C13.955,64.487,0.031,98.101,0.031,133.854s13.924,69.367,39.205,94.649c25.518,25.517,59.292,39.268,94.322,39.268
		c10.373,0,20.859-1.207,31.27-3.67c4.031-0.954,6.525-4.995,5.572-9.025c-0.953-4.031-5.001-6.526-9.025-5.571
		c-40.474,9.573-82.165-2.24-111.531-31.607c-20.871-20.87-33.017-48.135-34.623-77.376h12.832c4.143,0,7.5-3.358,7.5-7.5
		s-3.357-7.5-7.5-7.5h-12.73c1.094-15.903,5.311-31.195,12.36-45.156L38.481,86.6c1.182,0.682,2.471,1.006,3.743,1.006
		c2.592,0,5.113-1.346,6.502-3.751c2.071-3.587,0.842-8.174-2.745-10.245l-10.694-6.174c4.235-6.258,9.095-12.161,14.557-17.623
		c5.736-5.737,11.959-10.81,18.57-15.192l6.06,10.496c1.39,2.406,3.91,3.751,6.502,3.751c1.272,0,2.563-0.324,3.743-1.006
		c3.587-2.071,4.816-6.658,2.745-10.245L81.42,27.148c13.938-6.869,29.17-10.935,44.997-11.91c-0.017,0.204-0.031,0.408-0.031,0.616
		v11.333c0,4.142,3.357,7.5,7.5,7.5s7.5-3.358,7.5-7.5V15.854c0-0.208-0.015-0.412-0.031-0.616
		c15.827,0.975,31.059,5.041,44.997,11.91l-6.044,10.469c-2.071,3.587-0.842,8.174,2.745,10.245
		c1.182,0.682,2.471,1.006,3.743,1.006c2.592,0,5.113-1.346,6.502-3.751l6.06-10.496c6.611,4.381,12.833,9.455,18.57,15.192
		c5.462,5.462,10.321,11.365,14.557,17.623l-10.694,6.174c-3.587,2.071-4.816,6.658-2.745,10.245
		c1.389,2.406,3.91,3.751,6.502,3.751c1.272,0,2.563-0.324,3.743-1.006l10.799-6.235c7.05,13.962,11.266,29.253,12.36,45.156h-12.73
		c-4.143,0-7.5,3.358-7.5,7.5s3.357,7.5,7.5,7.5h12.832c-1.606,29.241-13.752,56.506-34.623,77.376
		c-2.929,2.929-2.929,7.678,0,10.606c2.929,2.929,7.677,2.929,10.607,0c25.281-25.282,39.205-58.895,39.205-94.649
		S253.816,64.487,228.535,39.206z"/>
	<path d="M162.171,94.964l-16.331,16.33c-3.639-1.934-7.717-2.961-11.954-2.961c-6.816,0-13.226,2.655-18.045,7.475
		c-4.821,4.82-7.476,11.229-7.476,18.046s2.654,13.226,7.476,18.046c2.928,2.929,7.677,2.928,10.606,0
		c2.929-2.929,2.929-7.678-0.001-10.607c-1.987-1.987-3.081-4.629-3.081-7.439s1.094-5.452,3.082-7.439
		c1.986-1.987,4.629-3.082,7.438-3.082c2.808,0,5.45,1.093,7.437,3.079c0,0.001,0.001,0.001,0.002,0.002
		c0.001,0.001,0.002,0.002,0.003,0.003c1.986,1.986,3.079,4.628,3.079,7.437c0,2.81-1.094,5.452-3.081,7.439
		c-2.93,2.929-2.93,7.678-0.001,10.607c1.465,1.464,3.384,2.197,5.304,2.197c1.919,0,3.839-0.732,5.303-2.196
		c4.821-4.82,7.476-11.229,7.476-18.046c0-4.237-1.027-8.316-2.96-11.954l16.331-16.33c2.93-2.929,2.93-7.677,0.001-10.606
		S165.099,92.035,162.171,94.964z"/>
	<path d="M97.228,198.034v17.917c0,4.142,3.357,7.5,7.5,7.5s7.5-3.358,7.5-7.5v-17.917c0-4.142-3.357-7.5-7.5-7.5
		S97.228,193.892,97.228,198.034z"/>
	<path d="M133.885,190.534c-4.143,0-7.5,3.358-7.5,7.5v17.917c0,4.142,3.357,7.5,7.5,7.5s7.5-3.358,7.5-7.5v-17.917
		C141.385,193.892,138.028,190.534,133.885,190.534z"/>
	<path d="M155.543,198.034v17.917c0,4.142,3.357,7.5,7.5,7.5s7.5-3.358,7.5-7.5v-17.917c0-4.142-3.357-7.5-7.5-7.5
		S155.543,193.892,155.543,198.034z"/>
</g>
<g>
</g>
<g>
</g>
<g>
</g>
<g>
</g>
<g>
</g>
<g>
</g>
<g>
</g>
<g>
</g>
<g>
</g>
<g>
</g>
<g>
</g>
<g>
</g>
<g>
</g>
<g>
</g>
<g>
</g>
</svg>
