<?xml version="1.0" encoding="iso-8859-1"?>
<!-- Generator: Adobe Illustrator 21.0.0, SVG Export Plug-In . SVG Version: 6.00 Build 0)  -->
<svg xmlns="http://www.w3.org/2000/svg" xmlns:xlink="http://www.w3.org/1999/xlink" version="1.1" id="Capa_1" x="0px" y="0px" viewBox="0 0 512 512" style="enable-background:new 0 0 512 512;" xml:space="preserve" width="512" height="512">
<g>
	<path d="M437.02,74.98C388.667,26.629,324.38,0,256,0S123.333,26.629,74.98,74.98C26.629,123.333,0,187.62,0,256   s26.629,132.667,74.98,181.02C123.333,485.371,187.62,512,256,512s132.667-26.629,181.02-74.98C485.371,388.667,512,324.38,512,256   S485.371,123.333,437.02,74.98z M256,456.617c-110.621,0-200.617-89.996-200.617-200.617S145.379,55.383,256,55.383   c110.621,0,200.617,89.996,200.617,200.617S366.621,456.617,256,456.617z"/>
	<path d="M256,246.04c-9.71,0-17.61,7.9-17.61,17.61c0,9.71,7.9,17.61,17.61,17.61s17.61-7.9,17.61-17.61   C273.61,253.94,265.71,246.04,256,246.04z"/>
	<path d="M421.57,201.64h-1.13c-45.87,0-91.68-9.69-136.17-28.81c-8.95-3.84-18.46-5.79-28.27-5.79c-9.89,0-19.47,1.98-28.48,5.88   c-45.57,19.76-91.84,29.89-137.54,30.11c-5.33,16.7-8.2,34.5-8.2,52.97c0,18.98,3.04,37.25,8.65,54.36h59.99   c26.28,0,47.67,21.38,47.67,47.66v62.34c18.11,6.39,37.61,9.86,57.91,9.86s39.8-3.47,57.91-9.86v-62.34   c0-26.28,21.39-47.66,47.67-47.66h59.99c5.61-17.11,8.65-35.38,8.65-54.36C430.22,237.02,427.18,218.75,421.57,201.64z M256,311.26   c-26.25,0-47.61-21.36-47.61-47.61s21.36-47.61,47.61-47.61s47.61,21.36,47.61,47.61S282.25,311.26,256,311.26z"/>
</g>















</svg>
